# xmcd
#
# Track frame offsets:
#	150
#	16077
#	32057
#	48281
#	66528
#	81898
#	94071
#	122284
#	140803
#	157918
#	175984
#	193298
#	210472
#	227834
#	241938
#	254861
#	277498
#	300510
#
# Disc length: 4250 seconds
#
# Revision: 1
# Processed by: cddbd v1.5.2PL0 Copyright (c) Steve Scherf et al.
# Submitted via: audiograbber 1.83.01
#
DISCID=04109812
DTITLE=Pam Tillis - Live In Nashville
DYEAR=2007
DGENRE=Country
TTITLE0=Mi Vida Loca
TTITLE1=Shake That Sugar Tree
TTITLE2=Don´t Tell Me What To Do
TTITLE3=Medley - Do You Know Where Your Man Is - Blue Roses
TTITLE4=Cleopatra, Queen Of Denial
TTITLE5=When You Walk In The Room
TTITLE6=Medley - Spilled Perfume - Let That Pony Run - All The Good Ones
TTITLE7=Calico Plains
TTITLE8=In Between Dances
TTITLE9=Last Train To Clardsville
TTITLE10=Mandolin Rain
TTITLE11=Heartache
TTITLE12=Long Dive To Dallas
TTITLE13=Demolition Angel
TTITLE14=I Said A Prayer
TTITLE15=Maybe It Was Memphis
TTITLE16=River And The Highway
TTITLE17=Go Your Own Way
EXTD=
EXTT0=
EXTT1=
EXTT2=
EXTT3=
EXTT4=
EXTT5=
EXTT6=
EXTT7=
EXTT8=
EXTT9=
EXTT10=
EXTT11=
EXTT12=
EXTT13=
EXTT14=
EXTT15=
EXTT16=
EXTT17=
PLAYORDER=
